<?xml version="1.0" standalone="no"?>
<!DOCTYPE svg PUBLIC "-//W3C//DTD SVG 20010904//EN"
 "http://www.w3.org/TR/2001/REC-SVG-20010904/DTD/svg10.dtd">
<svg version="1.0" xmlns="http://www.w3.org/2000/svg"
 width="256.000000pt" height="256.000000pt" viewBox="0 0 256.000000 256.000000"
 preserveAspectRatio="xMidYMid meet">
<metadata>
Created by potrace 1.14, written by Peter Selinger 2001-2017
</metadata>
<g transform="translate(0.000000,256.000000) scale(0.100000,-0.100000)"
fill="#000000" stroke="none">
<path d="M1405 2541 c6 -10 2 -11 -15 -6 -17 6 -21 4 -14 -6 6 -12 5 -12 -9 0
-11 8 -17 9 -17 3 0 -6 -7 -9 -15 -6 -9 4 -15 0 -15 -7 0 -11 -3 -11 -10 1 -6
9 -10 11 -10 3 0 -7 -7 -10 -17 -6 -12 5 -14 3 -8 -8 8 -12 6 -12 -8 0 -9 7
-17 9 -17 5 0 -5 -9 -15 -21 -22 -12 -8 -18 -9 -14 -3 3 6 2 11 -4 11 -5 0
-15 -8 -20 -17 -6 -10 -11 -13 -11 -5 0 10 -4 10 -22 0 -13 -7 -26 -17 -29
-22 -4 -5 -12 -5 -18 -2 -6 4 -11 2 -11 -5 0 -7 -3 -9 -7 -6 -10 10 -34 -14
-26 -27 4 -6 -2 -4 -12 4 -11 9 -16 10 -11 3 4 -8 1 -13 -8 -13 -9 0 -16 -5
-16 -11 0 -5 -5 -7 -10 -4 -6 3 -13 0 -16 -9 -3 -9 -12 -12 -21 -9 -11 4 -14
2 -9 -5 4 -7 1 -12 -9 -12 -9 0 -13 -4 -10 -10 3 -5 -1 -10 -9 -10 -8 0 -24
-12 -35 -26 -12 -15 -21 -23 -21 -19 0 4 -14 -6 -30 -24 -17 -17 -28 -36 -25
-42 4 -5 3 -8 -2 -7 -11 4 -53 -39 -46 -46 4 -3 1 -6 -5 -6 -7 0 -12 -7 -12
-16 0 -8 -4 -13 -9 -10 -5 3 -12 -1 -15 -10 -4 -10 -2 -13 7 -9 6 4 3 -1 -7
-9 -11 -9 -16 -16 -10 -16 5 0 2 -5 -6 -10 -8 -5 -15 -15 -15 -22 -1 -7 -7
-12 -15 -10 -11 3 -11 0 0 -12 8 -11 9 -16 1 -16 -6 0 -11 -7 -11 -16 0 -9 -5
-12 -12 -8 -7 4 -10 4 -6 -1 4 -4 2 -15 -5 -23 -8 -11 -8 -14 0 -9 6 4 3 -10
-7 -30 -10 -21 -16 -41 -13 -45 2 -5 0 -8 -6 -8 -10 0 -9 -19 2 -37 5 -9 3
-11 -6 -7 -9 3 -16 -3 -20 -15 -3 -12 -2 -19 3 -16 15 9 19 -23 5 -35 -8 -7
-13 -16 -10 -20 3 -5 0 -12 -6 -16 -8 -4 -7 -9 2 -16 11 -8 11 -11 1 -15 -10
-4 -10 -8 0 -21 10 -12 10 -14 1 -8 -7 4 -13 2 -13 -3 0 -6 6 -11 13 -11 9 0
8 -3 -2 -9 -9 -6 -10 -10 -2 -16 9 -5 9 -10 0 -21 -9 -11 -9 -14 0 -14 7 0 9
-5 5 -12 -10 -15 -10 -61 0 -76 4 -7 4 -16 1 -22 -3 -5 -2 -10 2 -10 8 0 12
-18 13 -64 1 -11 6 -29 13 -40 7 -12 12 -28 12 -36 1 -8 7 -14 15 -12 11 3 11
0 0 -12 -7 -9 -8 -16 -3 -16 5 0 10 -10 10 -22 1 -13 8 -27 16 -33 8 -5 12
-16 9 -24 -3 -8 0 -11 7 -7 6 4 11 1 11 -7 0 -22 35 -88 43 -81 4 4 7 1 7 -8
0 -8 11 -28 25 -44 14 -16 25 -35 25 -41 0 -7 5 -13 10 -13 6 0 10 -7 10 -16
0 -9 5 -12 12 -8 8 5 9 2 5 -10 -4 -10 -3 -15 3 -11 5 3 12 -6 16 -20 3 -14
16 -32 27 -40 12 -8 18 -15 14 -15 -5 0 0 -12 11 -27 10 -16 22 -36 25 -45 4
-10 11 -18 17 -18 5 0 10 -5 10 -11 0 -7 8 -18 18 -26 11 -10 12 -12 2 -8 -8
4 -5 -2 7 -13 12 -11 19 -22 16 -26 -4 -3 -1 -6 5 -6 7 0 12 -7 12 -15 0 -8 5
-15 10 -15 6 0 10 -7 10 -15 0 -8 5 -15 10 -15 6 0 10 -6 10 -14 0 -8 9 -21
20 -29 11 -8 17 -17 13 -20 -3 -4 3 -15 15 -25 12 -11 19 -22 15 -26 -3 -3 -2
-6 4 -6 6 0 13 -9 16 -21 3 -12 10 -18 16 -14 7 3 8 0 5 -9 -3 -9 -1 -16 5
-16 6 0 11 -6 11 -14 0 -7 15 -29 33 -47 17 -18 23 -27 12 -19 -17 12 -17 11
3 -11 12 -14 22 -30 22 -37 0 -6 8 -16 19 -21 10 -6 21 -18 25 -26 3 -10 2
-14 -5 -9 -6 3 -5 -3 2 -14 7 -12 15 -19 19 -17 8 5 30 -22 23 -29 -8 -8 18
-37 28 -30 5 3 6 -2 3 -10 -3 -9 4 -26 18 -39 12 -14 24 -31 26 -38 2 -8 12
-22 23 -32 10 -10 19 -24 19 -32 0 -8 5 -15 11 -15 5 0 8 -3 6 -8 -3 -4 2 -14
11 -22 14 -13 15 -12 9 3 -4 11 -3 16 3 12 6 -3 15 -3 21 1 8 5 8 9 -1 14 -9
6 -7 10 8 14 11 4 23 18 26 32 4 15 11 22 18 18 6 -4 9 -1 6 7 -3 8 2 20 11
27 13 11 13 12 1 7 -8 -3 -5 2 8 11 12 9 22 23 22 30 0 8 5 14 12 14 6 0 9 3
5 6 -3 4 4 15 16 26 12 11 15 17 7 13 -10 -4 -9 -2 2 8 10 8 15 17 11 20 -3 4
-1 7 5 7 6 0 21 18 32 40 11 22 25 40 31 40 6 0 7 5 4 11 -4 6 1 19 11 30 48
48 58 62 44 55 -8 -4 -6 1 6 11 11 10 19 24 17 30 -2 6 5 17 17 23 11 6 18 15
15 21 -4 5 -3 9 2 9 4 0 14 14 21 30 8 17 17 28 22 25 4 -3 11 2 14 11 4 10 2
13 -7 9 -6 -4 -3 1 7 9 11 9 16 16 11 16 -5 0 -1 6 10 13 10 8 15 19 11 26 -5
7 -2 10 6 9 7 -2 12 5 12 14 -1 10 3 16 10 15 6 -1 10 6 10 15 -1 10 2 16 6
13 4 -3 14 3 21 12 12 14 12 16 -1 8 -8 -4 -3 3 13 18 31 30 34 39 10 31 -10
-3 -5 2 10 11 18 10 26 22 23 31 -3 8 -2 13 3 10 4 -3 18 9 31 27 13 18 17 28
9 22 -8 -5 -7 -2 4 7 10 10 15 23 11 29 -4 7 -3 9 3 6 6 -4 19 5 28 19 12 18
13 24 4 20 -8 -4 -4 1 9 10 12 9 22 23 22 30 0 8 5 14 11 14 6 0 9 7 5 15 -3
8 0 14 7 12 7 -1 11 4 10 11 -2 6 1 12 7 12 5 0 17 17 26 38 10 20 26 45 36
55 10 10 18 26 18 37 0 10 5 22 10 25 6 4 8 11 5 16 -4 5 -1 9 5 9 6 0 9 4 5
9 -3 5 -1 12 5 16 6 3 8 17 6 30 -4 19 -1 23 12 18 9 -3 14 -3 10 2 -4 4 -2
15 5 23 9 13 9 14 0 8 -7 -4 -13 -2 -13 3 0 6 4 11 10 11 12 0 9 22 -5 32 -6
5 -3 8 6 8 12 0 17 10 18 33 1 59 4 72 15 79 8 6 8 8 -1 8 -12 0 -12 44 0 56
3 4 -1 17 -10 30 -15 23 -14 24 3 17 17 -6 17 -5 5 10 -7 9 -10 17 -7 17 4 0
2 9 -4 20 -8 15 -8 20 2 20 6 0 3 7 -8 16 -10 8 -13 13 -6 9 8 -4 12 1 12 14
0 12 -4 21 -10 21 -5 0 -6 7 -3 17 4 11 3 14 -5 9 -9 -5 -9 0 -2 19 7 19 6 27
-4 31 -7 3 -13 17 -13 31 0 14 -6 29 -13 33 -6 4 -12 11 -11 16 1 23 -12 53
-25 58 -8 3 -11 12 -7 22 4 10 0 22 -11 29 -9 7 -16 17 -14 21 4 15 -34 64
-45 57 -6 -4 -8 0 -4 10 3 9 0 18 -9 21 -9 3 -13 10 -10 14 7 12 -39 54 -49
45 -4 -5 -6 -3 -2 3 6 11 -63 84 -81 84 -5 0 -13 7 -16 16 -4 10 -12 14 -23
10 -10 -4 -14 -4 -10 0 8 8 -43 54 -60 54 -7 0 -13 5 -13 11 0 5 -4 7 -10 4
-5 -3 -10 -1 -10 5 0 6 -4 8 -10 5 -5 -3 -10 -1 -10 5 0 7 -7 10 -15 6 -8 -3
-14 -2 -14 2 3 19 -2 23 -16 12 -12 -10 -15 -10 -15 3 0 10 -6 14 -15 11 -8
-4 -15 -1 -15 5 0 6 -11 11 -25 11 -14 0 -25 5 -25 10 0 6 -5 10 -11 10 -5 0
-7 -6 -4 -12 4 -7 0 -5 -8 5 -11 14 -16 15 -20 5 -4 -10 -7 -10 -15 1 -6 8
-25 16 -43 18 -17 2 -44 6 -58 9 -48 9 -101 9 -106 -1 -3 -6 -7 -5 -11 2 -4
10 -11 10 -26 2 -16 -8 -19 -8 -13 1 6 9 3 9 -12 1 -14 -7 -24 -7 -33 2 -10 9
-11 9 -5 -2z m780 -321 c3 -5 1 -10 -4 -10 -6 0 -11 5 -11 10 0 6 2 10 4 10 3
0 8 -4 11 -10z"/>
<path d="M242 1798 c-7 -7 -12 -9 -12 -5 0 3 -14 -7 -31 -24 -17 -17 -28 -33
-25 -36 3 -3 1 -12 -5 -20 -13 -15 -19 -92 -8 -99 4 -2 7 -25 7 -51 1 -73 1
-75 14 -67 6 4 8 3 4 -4 -3 -6 14 -40 39 -75 25 -36 45 -70 45 -76 0 -7 5 -9
13 -5 6 4 3 -3 -8 -15 l-20 -23 24 -19 c16 -13 31 -17 50 -13 14 4 23 3 19 -1
-4 -4 -3 -12 2 -19 48 -58 60 -75 60 -83 0 -4 11 -21 25 -36 14 -15 23 -27 19
-27 -4 0 3 -8 14 -19 12 -10 19 -21 15 -25 -3 -3 0 -6 7 -6 7 0 11 -3 7 -6 -7
-8 25 -44 34 -38 4 2 6 -5 4 -16 -2 -11 1 -20 6 -20 6 0 8 -4 5 -8 -3 -5 4
-14 14 -22 10 -8 17 -17 15 -20 -3 -4 4 -15 15 -25 11 -10 20 -22 20 -27 0
-12 26 -39 32 -33 2 2 5 -5 5 -17 1 -12 6 -24 10 -27 4 -3 22 -26 38 -51 16
-25 34 -48 40 -52 7 -5 7 -8 0 -8 -5 0 -2 -5 8 -11 9 -5 17 -14 17 -19 0 -6
15 -31 33 -57 19 -27 37 -56 40 -65 4 -10 11 -18 17 -18 5 0 10 -5 10 -11 0
-13 36 -60 42 -54 2 2 5 -10 6 -28 2 -18 7 -33 12 -35 6 -2 10 -10 10 -18 0
-8 3 -14 8 -14 4 0 12 -10 17 -22 6 -13 16 -22 23 -21 6 2 9 -4 5 -12 -3 -9 4
-24 17 -35 13 -11 19 -20 14 -20 -5 0 -4 -4 1 -8 12 -9 34 -42 41 -62 3 -9 15
-20 26 -25 11 -6 19 -13 17 -16 -2 -4 7 -16 21 -28 14 -11 21 -20 17 -21 -4 0
3 -11 15 -23 17 -18 27 -21 39 -14 15 9 14 14 -4 46 -12 20 -27 42 -35 50 -7
8 -12 22 -9 31 2 10 -4 23 -14 31 -11 7 -19 17 -19 21 0 14 -141 218 -150 218
-5 0 -11 8 -15 19 -3 10 -15 23 -28 29 -12 6 -16 11 -9 11 11 1 11 4 0 16 -18
19 -31 37 -45 61 -6 10 -16 18 -22 17 -6 -2 -8 4 -5 12 4 8 -1 17 -10 21 -9 3
-14 10 -11 14 6 10 -30 51 -39 43 -4 -4 -4 0 -1 9 3 8 0 22 -8 30 -8 8 -21 27
-30 43 -8 17 -25 40 -37 53 -11 12 -18 22 -15 22 5 0 -74 110 -105 148 -6 6
-7 12 -3 12 4 0 0 7 -11 15 -10 7 -15 18 -11 24 3 6 2 11 -3 11 -6 0 -25 23
-43 51 -18 28 -39 57 -46 65 -8 8 -11 14 -6 14 4 0 3 4 -2 8 -6 4 -24 28 -40
54 -17 27 -34 48 -38 48 -4 0 2 10 13 22 17 19 18 24 7 33 -8 5 -12 15 -10 20
2 6 -7 11 -19 12 -13 1 -28 9 -34 17 -6 9 -14 14 -17 11 -4 -3 -5 -2 -3 1 4 5
-45 86 -73 120 -8 10 22 58 31 48 7 -6 42 66 44 91 1 11 3 25 4 30 1 6 2 12 0
15 -1 3 -4 16 -6 30 -3 14 -14 34 -26 45 -12 12 -18 14 -14 5 5 -10 3 -9 -7 2
-10 13 -16 15 -25 6z m42 -67 c-1 -1 1 -14 6 -27 7 -16 6 -24 -1 -24 -7 0 -6
-6 2 -17 12 -14 12 -16 0 -9 -9 6 -12 5 -9 -5 3 -8 -6 -22 -19 -32 -13 -10
-23 -24 -23 -31 0 -8 -11 -12 -27 -10 -38 3 -37 2 -25 17 9 10 7 19 -5 37 -9
13 -11 20 -5 16 8 -5 12 3 13 26 1 18 1 36 0 41 0 4 4 7 9 7 6 0 10 5 10 12 0
6 8 19 18 29 16 16 18 16 38 -5 12 -11 20 -23 18 -25z"/>
<path d="M600 1789 c0 -5 5 -7 10 -4 6 3 10 8 10 11 0 2 -4 4 -10 4 -5 0 -10
-5 -10 -11z"/>
</g>
</svg>
